HIERARCHY
ROOT root
{
	OFFSET 0.000000 0.000000 0.000000
	CHANNELS 6 Xposition Yposition Zposition Zrotation Yrotation Xrotation
	JOINT lhip
	{
		OFFSET 0.058581 -0.082280 -0.017664
		CHANNELS 3 Zrotation Yrotation Xrotation
		JOINT lknee
		{
			OFFSET 0.043451 -0.386469 0.008037
			CHANNELS 3 Zrotation Yrotation Xrotation
			JOINT lankle
			{
				OFFSET -0.014790 -0.426874 -0.037428
				CHANNELS 3 Zrotation Yrotation Xrotation
				JOINT ltoe
				{
					OFFSET 0.041054 -0.060286 0.122042
					CHANNELS 3 Zrotation Yrotation Xrotation
					End Site
					{
						OFFSET 0.000000 0.000000 0.000000
					}
				}
			}
		}
	}
	JOINT rhip
	{
		OFFSET -0.060310 -0.090513 -0.013543
		CHANNELS 3 Zrotation Yrotation Xrotation
		JOINT rknee
		{
			OFFSET -0.043257 -0.383688 -0.004843
			CHANNELS 3 Zrotation Yrotation Xrotation
			JOINT rankle
			{
				OFFSET 0.019056 -0.420046 -0.034562
				CHANNELS 3 Zrotation Yrotation Xrotation
				JOINT rtoe
				{
					OFFSET -0.034840 -0.062106 0.130323
					CHANNELS 3 Zrotation Yrotation Xrotation
					End Site
					{
						OFFSET 0.000000 0.000000 0.000000
					}
				}
			}
		}
	}
	JOINT lowerback
	{
		OFFSET 0.004439 0.124404 -0.038385
		CHANNELS 3 Zrotation Yrotation Xrotation
		JOINT upperback
		{
			OFFSET 0.004488 0.137956 0.026820
			CHANNELS 3 Zrotation Yrotation Xrotation
			JOINT chest
			{
				OFFSET -0.002265 0.056032 0.002855
				CHANNELS 3 Zrotation Yrotation Xrotation
				JOINT lowerneck
				{
					OFFSET -0.013390 0.211636 -0.033468
					CHANNELS 3 Zrotation Yrotation Xrotation
					JOINT upperneck
					{
						OFFSET 0.010113 0.088937 0.050410
						CHANNELS 3 Zrotation Yrotation Xrotation
						End Site
						{
							OFFSET 0.000000 0.000000 0.000000
						}
					}
				}
				JOINT lclavicle
				{
					OFFSET 0.071702 0.114000 -0.018898
					CHANNELS 3 Zrotation Yrotation Xrotation
					JOINT lshoulder
					{
						OFFSET 0.122921 0.045205 -0.019046
						CHANNELS 3 Zrotation Yrotation Xrotation
						JOINT lelbow
						{
							OFFSET 0.255332 -0.015649 -0.022946
							CHANNELS 3 Zrotation Yrotation Xrotation
							JOINT lwrist
							{
								OFFSET 0.265709 0.012698 -0.007375
								CHANNELS 3 Zrotation Yrotation Xrotation
								End Site
								{
									OFFSET 0.000000 0.000000 0.000000
								}
							}
						}
					}
				}
				JOINT rclavicle
				{
					OFFSET -0.082954 0.112472 -0.023707
					CHANNELS 3 Zrotation Yrotation Xrotation
					JOINT rshoulder
					{
						OFFSET -0.113228 0.046853 -0.008472
						CHANNELS 3 Zrotation Yrotation Xrotation
						JOINT relbow
						{
							OFFSET -0.260127 -0.014369 -0.031269
							CHANNELS 3 Zrotation Yrotation Xrotation
							JOINT rwrist
							{
								OFFSET -0.269108 0.006794 -0.006027
								CHANNELS 3 Zrotation Yrotation Xrotation
								End Site
								{
									OFFSET 0.000000 0.000000 0.000000
								}
							}
						}
					}
				}
			}
		}
	}
}
MOTION
Frames: 7
Frame Time: 0.033333
1.444415 -0.346930 0.995403 -83.150163 3.334211 84.984124 4.436344 -2.873093 -4.952388 -11.321031 -8.875751 52.890630 0.835269 6.830342 -17.208340 0.000000 -0.000000 0.000000 5.713362 2.627585 -4.006520 5.465433 4.982879 13.652496 -3.406598 -4.817987 -11.324910 0.000000 -0.000000 0.000000 11.354740 -2.398032 5.918816 5.362128 -1.440600 -0.450910 -2.173092 -0.445542 -2.983431 1.062518 -1.123016 4.119376 -2.961962 -1.542007 10.386595 -34.373870 3.862075 10.132037 -56.944191 3.745273 10.633085 12.803109 -27.344386 5.833061 -0.402739 -17.683540 -15.601410 30.398627 1.345402 6.907690 47.554819 3.229049 5.751564 -14.348407 20.443125 -6.166835 -0.457072 12.536968 -14.990083 
1.426903 -0.349491 0.994667 -83.764319 3.191561 86.338944 4.715986 -3.253466 -10.840990 -8.378463 -6.652839 53.071168 2.240976 6.684420 -20.605503 0.000000 -0.000000 0.000000 5.857433 3.582025 -4.429572 5.578107 6.513616 14.193582 -3.930523 -6.788589 -12.406689 0.000000 -0.000000 0.000000 11.138430 -2.417822 5.001232 5.126725 -1.834335 -1.013374 -1.265534 -0.228877 -3.004345 -0.047614 -2.494171 5.551687 -2.219829 0.863215 10.958919 -33.617369 1.679465 11.985110 -58.621076 3.875855 6.078168 13.155845 -28.494449 7.511203 -1.979112 -21.302045 -14.058375 29.630156 4.621401 10.802919 48.522961 5.067719 2.443654 -14.406470 19.325264 -5.473843 -0.638766 13.298940 -14.832156 
1.408383 -0.352438 0.994904 -84.717324 2.625489 86.551774 4.635896 -3.948136 -14.433745 -6.716758 -5.287023 50.497568 3.854209 8.295468 -23.172493 0.000000 -0.000000 0.000000 5.474081 3.604858 -3.658974 5.483595 7.736497 14.913007 -3.705638 -7.086009 -13.704121 0.000000 -0.000000 0.000000 10.541565 -1.755608 5.355056 5.160426 -2.074357 -1.297535 -0.994163 -0.057434 -2.604017 -0.050933 -2.295313 5.946585 -2.001099 0.940960 11.147052 -32.880142 0.811753 12.112048 -58.768484 3.261310 6.535752 13.295731 -29.935221 7.550132 0.881300 -20.607361 -15.381224 29.472047 5.899389 11.440408 49.113202 6.748707 3.170047 -14.859310 18.417928 -6.124871 -3.157048 12.699658 -14.511249 
1.384868 -0.356198 0.994363 -86.164107 1.886182 86.697964 4.638765 -4.576463 -18.048099 -4.390885 -3.485848 44.834051 4.941850 10.346708 -24.670097 0.000000 -0.000000 0.000000 4.830509 3.515109 -2.696777 5.370816 9.019512 16.180827 -3.384410 -6.988447 -15.459854 0.000000 -0.000000 0.000000 9.867011 -0.932695 6.310280 4.944241 -2.055330 -1.729062 -0.826651 0.303169 -2.306400 -0.155376 -1.946500 6.043419 -1.671809 0.739764 11.610259 -32.071289 0.246941 11.732661 -58.405027 2.596436 6.883678 13.589661 -32.431463 6.682218 3.551259 -20.137268 -17.000042 29.332718 6.883994 11.751575 49.939409 8.159548 3.924636 -15.393385 18.940159 -7.033256 -4.489505 12.493098 -14.314276 
1.371167 -0.358640 0.993338 -86.913941 1.626214 86.916852 4.974834 -4.798342 -20.148735 -3.174442 -2.330107 40.711664 5.340622 11.362876 -24.817326 0.000000 -0.000000 0.000000 4.551874 3.305153 -2.352583 5.369469 9.715208 17.093282 -3.269729 -6.886789 -16.510119 0.000000 -0.000000 0.000000 9.678670 -0.556240 6.764093 4.733871 -1.970003 -1.919685 -0.855221 0.516828 -2.081438 -0.231677 -1.700159 5.693526 -1.456118 0.539217 12.003706 -31.678508 0.149493 11.224193 -57.982221 2.100370 6.995484 13.897468 -34.119707 5.800503 4.757658 -19.960107 -17.921585 29.289285 7.214032 11.725248 50.324457 8.859053 4.320981 -15.568351 19.861747 -7.478733 -4.387606 12.760578 -14.414279 
1.352632 -0.362379 0.991375 -88.105850 1.350473 87.287489 5.587446 -4.512198 -22.528576 -2.208015 -1.353833 34.571257 5.779380 11.803488 -24.358456 0.000000 -0.000000 0.000000 4.165168 2.889958 -2.025302 5.421123 10.814195 18.437709 -3.202001 -6.585984 -17.900310 0.000000 -0.000000 0.000000 9.449081 -0.104410 7.173190 4.382425 -1.755174 -1.968150 -0.942717 0.845956 -1.796859 -0.433733 -1.406516 5.096364 -1.167928 0.404470 12.366046 -31.442168 0.271640 10.323811 -57.212332 1.425094 7.067976 14.492463 -36.393449 4.422673 6.521150 -19.504742 -19.159506 29.373735 7.550987 11.727816 50.584870 9.675670 4.876553 -15.656365 21.449110 -7.954054 -3.987065 13.406645 -14.737712 
1.332934 -0.367007 0.988814 -89.444059 1.180947 87.754235 6.174792 -3.676019 -24.257338 -1.800818 -1.570995 27.775188 6.045921 11.071120 -23.207248 0.000000 -0.000000 0.000000 3.735703 2.501676 -1.628469 5.529316 12.071367 19.533996 -3.166487 -6.218089 -19.137613 0.000000 -0.000000 0.000000 9.226435 0.263998 7.221874 3.994497 -1.518139 -1.714335 -1.040633 1.180001 -1.646079 -0.753609 -1.150786 4.621083 -0.896233 0.580329 12.497473 -31.531467 0.537952 9.399719 -56.391232 0.816392 7.049261 15.356242 -38.425677 2.782756 8.472731 -18.775420 -20.114735 29.542131 7.954328 12.000208 50.605352 10.319537 5.478195 -15.721506 23.239273 -8.315281 -3.174764 14.041645 -14.789962 
